<?xml version="1.0" encoding="UTF-8"?>
<svg width="36px" height="36px" viewBox="0 0 36 36" version="1.1" xmlns="http://www.w3.org/2000/svg" xmlns:xlink="http://www.w3.org/1999/xlink">
    <!-- Generator: Sketch 43.1 (39012) - http://www.bohemiancoding.com/sketch -->
    <title>avatar_erica</title>
    <desc>Created with Sketch.</desc>
    <defs>
        <ellipse id="path-1" cx="17.5324675" cy="17.5141304" rx="17.5324675" ry="17.5141304"></ellipse>
        <path d="M0.46922585,0.09271027 C0.46922585,1.81020731 1.94290562,3.20190893 3.76157176,3.20190893 L3.76157176,3.20190893 C5.57968327,3.20190893 7.05336304,1.81020731 7.05336304,0.09271027 L7.05336304,0.09271027 L0.46922585,0.09271027 Z" id="path-3"></path>
    </defs>
    <g id="Grid" stroke="none" stroke-width="1" fill="none" fill-rule="evenodd">
        <g id="Sales_voicebot_unbranded_avatar" transform="translate(-855.000000, -197.000000)">
            <g id="avatar_erica" transform="translate(855.000000, 197.000000)">
                <mask id="mask-2" fill="white">
                    <use xlink:href="#path-1"></use>
                </mask>
                <use id="avatar" fill="#FAC443" xlink:href="#path-1"></use>
                <g id="Green" mask="url(#mask-2)">
                    <g transform="translate(2.922078, 3.502826)">
                        <g id="Group-505" transform="translate(0.143133, 0.168963)">
                            <path d="M25.8136137,50.0988185 L3.30519358,50.0988185 L3.30519358,33.195866 C3.30519358,27.3263107 8.34354774,22.5677073 14.5594036,22.5677073 C20.7747049,22.5677073 25.8136137,27.3263107 25.8136137,33.195866 L25.8136137,50.0988185 Z" id="Fill-479" fill="#4A4A4A"></path>
                            <path d="M21,18 L8,18 L8,11.2598421 C8,7.53643729 10.9102373,4.51785577 14.5,4.51785577 C18.0897627,4.51785577 21,7.53643729 21,11.2598421 L21,18" id="Fill-489" fill="#FFD7B7"></path>
                            <path d="M8.57727324,29.988562 C9.96276517,29.3752076 10.5606676,27.8179894 9.91284753,26.5085223 C9.2644728,25.1980076 7.614972,24.6323178 6.22615223,25.2446247 C5.64045188,25.5033754 2.86059377,26.7782725 0.120115138,28.8074227 L3.1501161,33.2171841 C4.83899638,31.9145262 6.87175375,30.7459578 8.57727324,29.988562" id="Fill-491" fill="#4A4A4A"></path>
                            <path d="M22.6326951,24.6668354 C21.1057698,24.5699348 19.7846162,25.6594115 19.6797891,27.1013966 C19.5749621,28.5439056 20.7286143,29.7931372 22.2572035,29.8926567 C22.902805,29.9345596 25.98827,30.0896005 29.427041,29.567385 L29.0365741,24.323755 C26.8906701,24.6909296 24.513481,24.7841637 22.6326951,24.6668354" id="Fill-495" fill="#4A4A4A"></path>
                            <path d="M8.80291778,8.58080405 C7.44793108,8.58080405 6.34974292,7.54318233 6.34974292,6.26357109 C6.34974292,4.98395985 7.44793108,3.94633812 8.80291778,3.94633812 C10.1579045,3.94633812 11.2566473,4.98395985 11.2566473,6.26357109 C11.2566473,7.54318233 10.1579045,8.58080405 8.80291778,8.58080405 Z" id="Fill-499" fill="#993310"></path>
                            <path d="M18.9635819,11.5346781 C18.9635819,10.878897 18.4006218,10.3472534 17.7062119,10.3472534 L11.4127063,10.3472534 C10.7182964,10.3472534 10.1547817,10.878897 10.1547817,11.5346781 L6.37823465,11.5346781 L6.37823465,14.967577 C6.37823465,19.2343446 10.0410804,22.6934329 14.5591818,22.6934329 C19.0772832,22.6934329 22.7401289,19.2343446 22.7401289,14.967577 L22.7401289,11.5346781 L18.9635819,11.5346781" id="Fill-501" fill="#FFD6B7"></path>
                            <path d="M17.8486436,16.5839141 L11.2645064,16.5839141 C11.2645064,18.3008873 12.7381862,19.6931127 14.5562977,19.6931127 C16.3744092,19.6931127 17.8486436,18.3008873 17.8486436,16.5839141" id="Fill-503" fill="#6B240B"></path>
                            <path d="M21.9898667,5.26357109 C21.9898667,6.54318233 20.891124,7.58080405 19.5361372,7.58080405 C18.1811505,7.58080405 17.0829624,6.54318233 17.0829624,5.26357109 C17.0829624,3.98395985 18.1811505,2.94633812 19.5361372,2.94633812 C20.891124,2.94633812 21.9898667,3.98395985 21.9898667,5.26357109" id="Path" fill="#993310"></path>
                            <path d="M11.3869212,10.0536729 C9.73029109,10.0536729 8.3871206,8.71059173 8.3871206,7.05367294 C8.3871206,5.39675416 9.73029109,4.05367294 11.3869212,4.05367294 C13.0439501,4.05367294 14.3871206,5.39675416 14.3871206,7.05367294 C14.3871206,8.71059173 13.0439501,10.0536729 11.3869212,10.0536729 Z" id="Fill-481" fill="#993310"></path>
                            <path d="M14.5591263,7.93456968 C12.2551498,7.93456968 10.3871206,6.17045562 10.3871206,3.99412131 C10.3871206,1.81778701 12.2551498,0.053672944 14.5591263,0.053672944 C16.8636575,0.053672944 18.7316867,1.81778701 18.7316867,3.99412131 C18.7316867,6.17045562 16.8636575,7.93456968 14.5591263,7.93456968 Z" id="Fill-481" fill="#993310"></path>
                            <path d="M18.6731181,7.89562856 C18.5145457,8.25200622 18.4269117,8.64345772 18.4269117,9.05421642 C18.4269117,10.7072877 19.8462367,12.0476582 21.5966821,12.0476582 C23.3471275,12.0476582 24.7664525,10.7072877 24.7664525,9.05421642 C24.7664525,7.69530787 23.8073187,6.54771233 22.4935655,6.182316 C22.548737,5.97729951 22.5780581,5.7625477 22.5780581,5.54133815 C22.5780581,4.10833972 21.3476089,2.94633812 19.8301997,2.94633812 C18.3127905,2.94633812 17.0829624,4.10833972 17.0829624,5.54133815 C17.0829624,6.58394449 17.7339815,7.48309655 18.6731181,7.89562856 Z M9.72877914,10.0542164 C9.72877914,11.7072877 8.30945414,13.0476582 6.55900878,13.0476582 C4.80856341,13.0476582 3.38923841,11.7072877 3.38923841,10.0542164 C3.38923841,8.40114517 4.80856341,7.06077465 6.55900878,7.06077465 C8.30945414,7.06077465 9.72877914,8.40114517 9.72877914,10.0542164 Z" id="Fill-483" fill="#993310"></path>
                        </g>
                        <g id="Group-509" transform="translate(10.938192, 16.659801)">
                            <mask id="mask-4" fill="white">
                                <use xlink:href="#path-3"></use>
                            </mask>
                            <g id="Clip-507"></g>
                            <polygon id="Fill-506" fill="#FFFFFF" mask="url(#mask-4)" points="7.05336304 1.2293277 0.46922585 1.2293277 0.46922585 0.0932340568 7.05336304 0.0932340568"></polygon>
                            <path d="M5.19326525,3.20206607 C5.19326525,3.94898609 4.55210085,4.55448368 3.76118352,4.55448368 C2.97026618,4.55448368 2.32965643,3.94898609 2.32965643,3.20206607 C2.32965643,2.45514604 2.97026618,1.84964845 3.76118352,1.84964845 C4.55210085,1.84964845 5.19326525,2.45514604 5.19326525,3.20206607" id="Fill-508" fill="#F29191" mask="url(#mask-4)"></path>
                        </g>
                        <g id="Group-520" transform="translate(1.509303, 11.692274)">
                            <path d="M10.8143802,1.04808225 C10.8143802,1.52577585 10.4039462,1.91337811 9.89811408,1.91337811 C9.39228196,1.91337811 8.981848,1.52577585 8.981848,1.04808225 C8.981848,0.570388658 9.39228196,0.182786399 9.89811408,0.182786399 C10.4039462,0.182786399 10.8143802,0.570388658 10.8143802,1.04808225" id="Fill-510" fill="#993310"></path>
                            <path d="M17.413659,1.09166132 C17.413659,1.56935491 17.0032251,1.95695717 16.497393,1.95695717 C15.9915608,1.95695717 15.5811269,1.56935491 15.5811269,1.09166132 C15.5811269,0.613967723 15.9915608,0.226365464 16.497393,0.226365464 C17.0032251,0.226365464 17.413659,0.613967723 17.413659,1.09166132" id="Fill-512" fill="#993310"></path>
                        </g>
                    </g>
                </g>
            </g>
        </g>
    </g>
</svg>